<?xml version="1.0" encoding="UTF-8"?>
<svg width="42px" height="42px" viewBox="0 0 63 63" version="1.1" xmlns="http://www.w3.org/2000/svg" xmlns:xlink="http://www.w3.org/1999/xlink">
  <g stroke="none" stroke-width="1" fill="none" fill-rule="evenodd">
    <g fill="#FFFFFF" fill-rule="nonzero">
      <path d="M31.1,0 C40.1,0 47.7,3 53.8,9 C59.9,15 62.9,22.4 62.9,31.2 C62.9,39.9 59.9,47.3 53.8,53.4 C47.7,59.5 40.3,62.5 31.6,62.5 C22.8,62.5 15.3,59.5 9.2,53.4 C3.1,47.3 0.1,40 0.1,31.4 C0.1,25.7 1.5,20.4 4.3,15.5 C7.1,10.6 10.8,6.8 15.6,4 C20.3,1.4 25.5,0 31.1,0 Z M31.3,5.8 C26.9,5.8 22.7,6.9 18.8,9.2 C14.8,11.5 11.8,14.6 9.5,18.5 C7.3,22.4 6.2,26.7 6.2,31.5 C6.2,38.6 8.7,44.6 13.6,49.4 C18.5,54.3 24.4,56.7 31.4,56.7 C36,56.7 40.3,55.6 44.2,53.3 C48.1,51.1 51.2,48 53.4,44.1 C55.6,40.2 56.7,35.9 56.7,31.1 C56.7,26.4 55.6,22.1 53.4,18.3 C51.2,14.5 48.1,11.4 44.1,9.1 C40.1,7 35.8,5.8 31.3,5.8 Z"></path>
      <g transform="translate(14.000000, 11.000000)">
        <rect id="Rectangle" transform="translate(23.405155, 19.224655) rotate(51.781312) translate(-23.405155, -19.224655) " x="21.9050694" y="11.5742183" width="3.00017127" height="15.3008735"></rect>
        <rect id="Rectangle" transform="translate(10.398735, 12.627525) rotate(-38.218688) translate(-10.398735, -12.627525) " x="8.89864937" y="-2.12331705" width="3.00017127" height="29.5016841"></rect>
      </g>
    </g>
  </g>
</svg>
