<svg width="42" height="42" viewBox="0 0 63 63" xmlns="http://www.w3.org/2000/svg"><g fill="#FFF"><path d="M31.1 0c9 0 16.6 3 22.7 9 6.1 6 9.1 13.4 9.1 22.2 0 8.7-3 16.1-9.1 22.2-6.1 6.1-13.5 9.1-22.2 9.1-8.8 0-16.3-3-22.4-9.1C3.1 47.3.1 40 .1 31.4c0-5.7 1.4-11 4.2-15.9C7.1 10.6 10.8 6.8 15.6 4c4.7-2.6 9.9-4 15.5-4zm.2 5.8c-4.4 0-8.6 1.1-12.5 3.4-4 2.3-7 5.4-9.3 9.3-2.2 3.9-3.3 8.2-3.3 13 0 7.1 2.5 13.1 7.4 17.9 4.9 4.9 10.8 7.3 17.8 7.3 4.6 0 8.9-1.1 12.8-3.4 3.9-2.2 7-5.3 9.2-9.2 2.2-3.9 3.3-8.2 3.3-13 0-4.7-1.1-9-3.3-12.8-2.2-3.8-5.3-6.9-9.3-9.2-4-2.1-8.3-3.3-12.8-3.3z"/><path d="M42.488 24.313l1.856 2.357-12.021 9.466-1.856-2.357z"/><path d="M14.095 12.967l2.357-1.856 18.252 23.178-2.357 1.856z"/></g></svg>